<svg xmlns="http://www.w3.org/2000/svg" xmlns:xlink="http://www.w3.org/1999/xlink" width="14.511" height="19.095" viewBox="0 0 14.511 19.095"><defs><style>.a{fill:url(#a);}</style><radialGradient id="a" cx="0.5" cy="0.856" r="0.72" gradientTransform="matrix(0.105, -0.997, 1.168, 0.071, -0.552, 1.294)" gradientUnits="objectBoundingBox"><stop offset="0" stop-color="#ffa279"/><stop offset="1" stop-color="#ff0010"/></radialGradient></defs><path class="a" d="M13.752,208.967a2.9,2.9,0,0,1-1.657,2.563c1.272-2.283-.515-5.517-2.059-6.349a2.948,2.948,0,0,1-1.642-3.642c-1.659,1.562.315,2.231,1.5,5.593a3.421,3.421,0,0,1-1.742,4.461c1.287-1.391,1.119-3.482-.579-4.064-1.1-.376-4.256-2.329-3.149-3.911A6.809,6.809,0,0,0,5.3,199.65c0,1.754-2.876,2.531-3.034,4.141s2.229,2.243,2.631,3.681-1.165,2.507-2.372,2.933a3.068,3.068,0,0,0-2.516,3.221c-.158,2.631,3.336,2.9,4.314,3.681s.748,1.438.748,1.438a1.291,1.291,0,0,1,1.153-.424,8.343,8.343,0,0,0,6.554-1.129C15.995,214.949,13.752,208.967,13.752,208.967ZM6.5,217.882s.2-.906-1.078-.259a3.391,3.391,0,0,0-.82-2.761c-1.107-1.078-1.869-2.732-.733-3.106s2.674-.345,2.8-1.725c0,0,.546,2.459-.561,3.451s.216,2.027.216,2.027a1.048,1.048,0,0,1,.3.733v.23s1.346.143,1.251-1.093c-.216-2.8.834-4.141,3.106-4.357,0,0-2.387.536-2.718,4.443-.086,1.021.489.719-.216,1.682,0,0,2.631-.82,3.58-2.674,0,0,.345,4.084-5.133,3.408Z" transform="translate(0 -199.65)"/></svg>