<?xml version="1.0" encoding="UTF-8"?>
<svg width="29px" height="17px" viewBox="0 0 29 17" version="1.1" xmlns="http://www.w3.org/2000/svg" xmlns:xlink="http://www.w3.org/1999/xlink">
    <!-- Generator: Sketch 51.1 (57501) - http://www.bohemiancoding.com/sketch -->
    <title>btn_type_summoner_on</title>
    <desc>Created with Sketch.</desc>
    <defs></defs>
    <g id="Page-1" stroke="none" stroke-width="1" fill="none" fill-rule="evenodd">
        <g id="btn_type_summoner_on" transform="translate(-5.000000, -11.000000)" fill-rule="nonzero">
            <g id="Rectangle_160" fill="#431B00" fill-opacity="0">
                <rect id="Rectangle-path" x="0" y="0" width="37.8" height="37.8" rx="5"></rect>
            </g>
            <polygon id="Path_61" fill="#FF9F56" points="24.818 22.944 29.529 21.244 24.981 20.944 29.367 15.344 22.95 17.744 21.935 11 16.209 17.12 12.676 15.914 15.235 20.743 8.411 20.743 14.421 22.943 5 24.28 18.97 27.042 11.782 24.28 16.696 23.793 13.853 21.437 17.021 22.006 15.559 18.757 18.359 20.788 20.676 14.9 20.676 20.1 24.818 18.394 22.056 21.846 24.371 21.846 21.894 23.552 26.93 24.486 18.97 27.045 33.346 25.339"></polygon>
        </g>
    </g>
</svg>