<svg xmlns="http://www.w3.org/2000/svg" viewBox="0 0 187.8 181.96"><defs><style>.cls-1{fill:#fff;}</style></defs><g id="Layer_2" data-name="Layer 2"><g id="Layer_1-2" data-name="Layer 1"><path class="cls-1" d="M133.63,45.36,93.9,79.22,54.18,45.36,0,91.53l54.18,46.18L93.9,103.85l39.73,33.86L187.8,91.53ZM79.7,91.74,54.18,113.49l-25.77-22,25.77-22L79.7,91.32l-.25.21Zm28.41,0,.24-.21-.24-.21,25.52-21.75,25.76,22-25.76,22Z"/><polygon class="cls-1" points="110.94 40.45 93.9 0 76.86 40.45 93.9 55.02 110.94 40.45"/><polygon class="cls-1" points="76.86 141.51 93.9 181.96 110.94 141.51 93.9 126.94 76.86 141.51"/></g></g></svg>