<svg xmlns="http://www.w3.org/2000/svg" xmlns:xlink="http://www.w3.org/1999/xlink" width="19.44" height="17.457" viewBox="0 0 19.44 17.457"><defs><style>.a{fill:url(#a);}</style><radialGradient id="a" cx="0.722" cy="0.23" r="0.993" gradientTransform="matrix(-0.579, 0.776, -0.712, -0.631, 1.303, -0.185)" gradientUnits="objectBoundingBox"><stop offset="0" stop-color="#aaff9a"/><stop offset="1" stop-color="#1ba200"/></radialGradient></defs><path class="a" d="M16.2,42.382s-.35.048-.835.063q-.121.07-.25.142a31.331,31.331,0,0,0-2.668,1.665c.817.659,1.8,2.295,1.78,6.355,0,0-.489-4.049-3.129-5.367-.813.627-1.57,1.269-2.271,1.908a8.794,8.794,0,0,1-.382,6.2c.5-3.28-.13-4.695-.6-5.27a35.542,35.542,0,0,0-5.271,6.444,54.452,54.452,0,0,1,3.3-5.8Q6.435,47.848,7,47.07c-1.078-1.411-3.935-.384-3.962-.374a3.933,3.933,0,0,1,4.53-.385A33.848,33.848,0,0,1,9.8,43.7c-.356-2.069-3.2-2.016-3.2-2.016,1.81-.809,3.417.367,4.149,1.058.626-.608,1.212-1.123,1.736-1.554q0-.051,0-.105s-3.091-4.822-7.786-.352a12.6,12.6,0,0,0-2.67,8.226A10.2,10.2,0,0,1,0,56.232s5,.763,14.124-3.4S18.31,42.265,16.2,42.382Z" transform="translate(0 -38.83)"/></svg>