<svg xmlns="http://www.w3.org/2000/svg" xmlns:xlink="http://www.w3.org/1999/xlink" width="18.785" height="19.098" viewBox="0 0 18.785 19.098"><defs><style>.a{fill:url(#a);}</style><radialGradient id="a" cx="0.5" cy="0.5" r="0.5" gradientUnits="objectBoundingBox"><stop offset="0" stop-color="#e784ff"/><stop offset="1" stop-color="#9b00e0"/></radialGradient></defs><path class="a" d="M13.948.933,12.7,2.574l-2.191.1L9.462,4.557l.626-2.435,1.6-.244.3-1.59A11.707,11.707,0,0,0,9.392,0C4.205,0,0,3.333,0,7.444a6.963,6.963,0,0,0,3.427,5.75l1.252,3.747,1.687.383.921-2.694.54,4.086,1.635.383.133-4.509,1.259,4.439,1.565-.9.293-3.535.716,2.561,2.372-2.4.189-2.006a6.766,6.766,0,0,0,2.8-5.3C18.785,4.643,16.832,2.2,13.948.933ZM4.324,8.718s-3.068.052-1.456-3.9a5.812,5.812,0,0,1,3.9,1.352C8.224,7.626,8.276,8.614,9,8.562a3.4,3.4,0,0,1-1.872,0,7.1,7.1,0,0,0-2.808.156Zm5.358,3.309A7.349,7.349,0,0,0,7.263,13.68s1.3-2.714,2.419-3.245c0,0,1.829,1.475,2.006,2.36a16.444,16.444,0,0,0-2.006-.767Zm4.778-3.309a7.1,7.1,0,0,0-2.808-.156,3.4,3.4,0,0,1-1.872,0c.728.052.78-.936,2.236-2.392a5.812,5.812,0,0,1,3.9-1.352c1.612,3.951-1.456,3.9-1.456,3.9Z"/></svg>