<svg xmlns="http://www.w3.org/2000/svg" xmlns:xlink="http://www.w3.org/1999/xlink" width="24.88" height="24.827" viewBox="0 0 24.88 24.827"><defs><style>.a{fill:url(#a);}</style><radialGradient id="a" cx="0.5" cy="0.5" r="0.5" gradientUnits="objectBoundingBox"><stop offset="0" stop-color="#fff"/><stop offset="1" stop-color="#c9c9c9"/></radialGradient></defs><path class="a" d="M24.88,12.445l-4.718-.781a7.83,7.83,0,0,0-6.966-7.1L12.44,0l-.753,4.548a7.829,7.829,0,0,0-7.139,7.144L0,12.445l4.565.756a7.83,7.83,0,0,0,7.1,6.96l.778,4.666.781-4.683a7.831,7.831,0,0,0,6.923-6.915Zm-5.019-.831-3.868-.641,1.817-3.821a7.519,7.519,0,0,1,2.052,4.462ZM17.735,7.075,13.912,8.892l-.666-4.026A7.525,7.525,0,0,1,17.735,7.075Zm-6.1-2.226-.669,4.044L7.031,7.021A7.522,7.522,0,0,1,11.637,4.849ZM7.015,7.036l1.872,3.937-4.039.669A7.522,7.522,0,0,1,7.015,7.036ZM4.867,13.251l4.02.666L7.073,17.733A7.526,7.526,0,0,1,4.867,13.251Zm2.287,4.56L10.968,16l.644,3.863a7.518,7.518,0,0,1-4.458-2.049Zm6.117,2.031L13.912,16l3.7,1.76A7.523,7.523,0,0,1,13.271,19.842Zm4.481-2.223-1.76-3.7,3.848-.637a7.523,7.523,0,0,1-2.088,4.339Z"/></svg>