<svg xmlns="http://www.w3.org/2000/svg" xmlns:xlink="http://www.w3.org/1999/xlink" width="16.929" height="20.519" viewBox="0 0 16.929 20.519"><defs><style>.a{fill:url(#a);}</style><radialGradient id="a" cx="0.5" cy="0.119" r="0.787" gradientTransform="matrix(-0.27, 0.975, -1.215, -0.229, 0.78, -0.341)" gradientUnits="objectBoundingBox"><stop offset="0" stop-color="#9bfaff"/><stop offset="1" stop-color="#00b3be"/></radialGradient></defs><path class="a" d="M30.637,120.748a2.383,2.383,0,0,0,.019-.3,2.423,2.423,0,0,0-2.259-2.418,2.426,2.426,0,0,0-2.954-1.679,2.422,2.422,0,0,0-2.06-1.147,2.46,2.46,0,0,0-.369.028h0c-.138.031-.275.064-.411.1h0a2.4,2.4,0,0,0-.4.18l-.059-.045a2.424,2.424,0,0,0-3.8,1.435,2.348,2.348,0,0,1-.046.31q-.009.1-.009.207a2.414,2.414,0,0,0,.018.292q-.214.2-.415.406a2.457,2.457,0,0,1-.374.408,10.27,10.27,0,0,0,9.729,16.8,6.347,6.347,0,0,1-.149-12.272,2.424,2.424,0,1,0,3.551-2.31Zm-7.693,13.326c-11.866-7.67-3.3-14.376-3.3-14.376-5.916,7.739,3.3,14.376,3.3,14.376-9.974-8.977-.619-14.548-.619-14.548-7.016,7.257.619,14.548.619,14.548s-7.429-8.22,1.307-12.932C24.252,121.142,17.854,126.645,22.945,134.074Z" transform="translate(-15 -114.999)"/></svg>